<svg width="18" height="13" viewBox="0 0 18 13" fill="none" xmlns="http://www.w3.org/2000/svg">
<path d="M0.234207 5.82457L5.83426 0.22457C5.98514 0.0788433 6.18723 -0.00179249 6.39699 3.0242e-05C6.60675 0.00185298 6.8074 0.0859883 6.95573 0.234315C7.10406 0.382641 7.18819 0.583291 7.19001 0.793049C7.19184 1.00281 7.1112 1.20489 6.96547 1.35577L2.73103 5.59017H16.8C17.0121 5.59017 17.2156 5.67446 17.3657 5.82448C17.5157 5.97451 17.6 6.178 17.6 6.39017C17.6 6.60234 17.5157 6.80583 17.3657 6.95585C17.2156 7.10588 17.0121 7.19017 16.8 7.19017H2.73103L6.96547 11.4246C7.04188 11.4984 7.10283 11.5866 7.14476 11.6842C7.18668 11.7818 7.20875 11.8868 7.20968 11.993C7.2106 12.0993 7.19036 12.2046 7.15013 12.3029C7.10991 12.4012 7.0505 12.4906 6.97539 12.5657C6.90027 12.6408 6.81095 12.7002 6.71263 12.7404C6.61432 12.7807 6.50897 12.8009 6.40275 12.8C6.29652 12.799 6.19154 12.777 6.09394 12.7351C5.99634 12.6931 5.90806 12.6322 5.83426 12.5558L0.234207 6.95577C0.0842285 6.80575 -2.47955e-05 6.6023 -2.47955e-05 6.39017C-2.47955e-05 6.17804 0.0842285 5.97459 0.234207 5.82457Z" fill="white"/>
</svg>
