<svg width="18" height="13" viewBox="0 0 18 13" fill="none" xmlns="http://www.w3.org/2000/svg">
<path d="M17.3658 5.82457L11.7657 0.22457C11.6148 0.0788433 11.4127 -0.00179249 11.203 3.0242e-05C10.9932 0.00185298 10.7926 0.0859883 10.6442 0.234315C10.4959 0.382641 10.4118 0.583291 10.41 0.793049C10.4081 1.00281 10.4888 1.20489 10.6345 1.35577L14.8689 5.59017H0.800008C0.587833 5.59017 0.384347 5.67446 0.234317 5.82448C0.0842863 5.97451 0 6.178 0 6.39017C0 6.60234 0.0842863 6.80583 0.234317 6.95585C0.384347 7.10588 0.587833 7.19017 0.800008 7.19017H14.8689L10.6345 11.4246C10.5581 11.4984 10.4971 11.5866 10.4552 11.6842C10.4133 11.7818 10.3912 11.8868 10.3903 11.993C10.3894 12.0993 10.4096 12.2046 10.4498 12.3029C10.4901 12.4012 10.5495 12.4906 10.6246 12.5657C10.6997 12.6408 10.789 12.7002 10.8873 12.7404C10.9857 12.7807 11.091 12.8009 11.1972 12.8C11.3035 12.799 11.4084 12.777 11.506 12.7351C11.6036 12.6931 11.6919 12.6322 11.7657 12.5558L17.3658 6.95577C17.5157 6.80575 17.6 6.6023 17.6 6.39017C17.6 6.17804 17.5157 5.97459 17.3658 5.82457Z" fill="white"/>
</svg>
